<svg version="1.2" xmlns="http://www.w3.org/2000/svg" viewBox="0 0 400 400" width="400" height="400">
	<title>logo-svg</title>
	<style>
		.s0 { fill: #000000 } 
		.s1 { fill: #ff0000 } 
		.s2 { fill: #00ff00 } 
	</style>
	<path id="Shape 1" class="s0" d="m379.5 21v358.5h-358.5v-358.5z"/>
	<path id="Shape 2" class="s1" d="m154 294c-52 0-94-42-94-94 0-52 42-94 94-94 52 0 94 42 94 94 0 52-42 94-94 94zm0 0c-52 0-94-42-94-94 0-52 42-94 94-94 52 0 94 42 94 94 0 52-42 94-94 94z"/>
	<path id="Shape 2 copy" class="s2" d="m246 294c-52 0-94-42-94-94 0-52 42-94 94-94 52 0 94 42 94 94 0 52-42 94-94 94zm0 0c-52 0-94-42-94-94 0-52 42-94 94-94 52 0 94 42 94 94 0 52-42 94-94 94z"/>
</svg>